<?xml version="1.0" encoding="UTF-8" standalone="no"?><!DOCTYPE svg PUBLIC "-//W3C//DTD SVG 1.1//EN" "http://www.w3.org/Graphics/SVG/1.1/DTD/svg11.dtd"><svg width="100%" height="100%" viewBox="0 0 303 103" version="1.1" xmlns="http://www.w3.org/2000/svg" xmlns:xlink="http://www.w3.org/1999/xlink" xml:space="preserve" xmlns:serif="http://www.serif.com/" style="fill-rule:evenodd;clip-rule:evenodd;stroke-linejoin:round;stroke-miterlimit:2;"><g><path d="M159.101,102.405c-1.372,-0 -2.785,-0.2 -4.243,-0.6c-1.456,-0.4 -2.786,-1.172 -3.985,-2.315c-1.2,-1.143 -2.173,-2.7 -2.915,-4.671c-0.743,-1.972 -1.114,-4.558 -1.114,-7.759l-0,-27.172c-0,-4.913 1,-8.685 3,-11.313c2.114,-2.629 5.201,-3.944 9.257,-3.944c4.114,-0 7.201,1.315 9.257,3.944c2.058,2.57 3.087,6.342 3.087,11.313l0,27.172c0,3.201 -0.371,5.787 -1.114,7.759c-0.743,1.971 -1.716,3.528 -2.915,4.671c-1.199,1.143 -2.529,1.915 -3.985,2.315c-1.459,0.4 -2.901,0.6 -4.33,0.6Zm-0,-55.116c-3.257,-0 -5.629,1 -7.114,3c-1.658,2.114 -2.486,5.315 -2.486,9.599l0,27.172c0,4.345 0.828,7.573 2.486,9.687c1.543,2 3.915,3 7.114,3c3.143,0 5.543,-1 7.201,-3c1.6,-2 2.4,-5.228 2.4,-9.687l0,-27.172c0,-4.4 -0.8,-7.599 -2.4,-9.599c-1.6,-2 -4,-3 -7.201,-3Z" style="fill-rule:nonzero;"/><path d="M196.989,76.089c2.514,2.401 3.771,5.801 3.771,10.201l0,14.658c0,0.913 -0.458,1.371 -1.371,1.371c-0.342,0 -0.643,-0.128 -0.9,-0.385c-0.258,-0.258 -0.386,-0.587 -0.386,-0.986l-0,-14.658c-0,-3.543 -0.942,-6.271 -2.828,-8.186c-1.886,-1.915 -4.544,-2.872 -7.973,-2.872l-7.714,0l0,25.716c0,0.913 -0.458,1.371 -1.371,1.371c-0.344,0 -0.643,-0.128 -0.901,-0.385c-0.257,-0.258 -0.385,-0.587 -0.385,-0.986l-0,-55.116c-0,-0.344 0.128,-0.643 0.385,-0.9c0.258,-0.258 0.557,-0.386 0.901,-0.386l9.085,-0c4.572,-0 7.944,1.228 10.116,3.685c2.17,2.458 3.257,6.315 3.257,11.572c0,5.201 -1.058,9.058 -3.172,11.573c-0.915,1.085 -2.087,1.942 -3.514,2.57c0.57,0.286 1.099,0.6 1.585,0.944c0.485,0.342 0.958,0.743 1.415,1.199Zm-17.401,-3.514l7.714,-0c3.716,-0 6.429,-1 8.143,-3c1.658,-1.886 2.486,-5.143 2.486,-9.772c-0,-4.456 -0.828,-7.672 -2.486,-9.643c-1.658,-1.971 -4.371,-2.957 -8.143,-2.957l-7.714,0l0,25.372Z" style="fill-rule:nonzero;"/><path d="M259.644,102.405c-1.371,-0 -2.784,-0.2 -4.242,-0.6c-1.457,-0.4 -2.787,-1.172 -3.986,-2.315c-1.199,-1.143 -2.172,-2.7 -2.915,-4.671c-0.742,-1.972 -1.114,-4.558 -1.114,-7.759l0,-27.172c0,-4.913 1,-8.685 3,-11.313c2.114,-2.629 5.201,-3.944 9.257,-3.944c4.115,-0 7.202,1.315 9.258,3.944c2.058,2.57 3.087,6.342 3.087,11.313l-0,27.172c-0,3.201 -0.372,5.787 -1.114,7.759c-0.743,1.971 -1.716,3.528 -2.915,4.671c-1.2,1.143 -2.529,1.915 -3.986,2.315c-1.458,0.4 -2.9,0.6 -4.33,0.6Zm0,-55.116c-3.257,-0 -5.628,1 -7.114,3c-1.657,2.114 -2.485,5.315 -2.485,9.599l-0,27.172c-0,4.345 0.828,7.573 2.485,9.687c1.544,2 3.915,3 7.114,3c3.144,0 5.544,-1 7.202,-3c1.599,-2 2.4,-5.228 2.4,-9.687l-0,-27.172c-0,-4.4 -0.801,-7.599 -2.4,-9.599c-1.6,-2 -4,-3 -7.202,-3Z" style="fill-rule:nonzero;"/><path d="M289.904,102.319c-4.115,0 -7.202,-1.315 -9.258,-3.943c-2.058,-2.571 -3.087,-6.343 -3.087,-11.316c0,-0.913 0.459,-1.371 1.372,-1.371c0.344,0 0.643,0.129 0.9,0.386c0.257,0.257 0.386,0.587 0.386,0.985c-0,2.801 0.315,5.029 0.944,6.687c0.628,1.658 1.413,2.929 2.357,3.815c0.942,0.886 1.985,1.457 3.128,1.714c1.143,0.257 2.229,0.386 3.258,0.386c3.085,-0 5.471,-1.073 7.157,-3.214c1.685,-2.143 2.529,-5.13 2.529,-8.958c0,-2.058 -0.359,-3.786 -1.072,-5.187c-0.714,-1.398 -1.571,-2.542 -2.571,-3.427c-1,-0.886 -2.043,-1.587 -3.129,-2.1c-1.087,-0.515 -1.972,-0.944 -2.657,-1.286l-1.459,-0.687c-0.856,-0.342 -1.913,-0.842 -3.17,-1.5c-1.257,-0.656 -2.473,-1.571 -3.643,-2.743c-1.172,-1.17 -2.187,-2.614 -3.043,-4.328c-0.857,-1.715 -1.287,-3.829 -1.287,-6.344c0,-4.342 1,-7.913 3,-10.714c2.23,-3.086 5.345,-4.628 9.345,-4.628c4.114,-0 7.228,1.313 9.342,3.942c2.058,2.572 3.087,6.371 3.087,11.4c-0,0.344 -0.129,0.658 -0.386,0.944c-0.257,0.286 -0.587,0.428 -0.985,0.428c-0.401,-0 -0.731,-0.142 -0.988,-0.428c-0.257,-0.286 -0.384,-0.6 -0.384,-0.944c0,-4.342 -0.83,-7.57 -2.487,-9.685c-1.542,-2 -3.942,-3 -7.199,-3c-3.029,0 -5.401,1.2 -7.115,3.6c-1.715,2.342 -2.572,5.371 -2.572,9.085c-0,2.058 0.342,3.801 1.029,5.23c0.685,1.428 1.529,2.614 2.529,3.557c1,0.943 2.042,1.701 3.129,2.271c1.085,0.573 2.056,1.029 2.914,1.372l1.372,0.599c0.743,0.344 1.743,0.83 3,1.459c1.257,0.628 2.485,1.5 3.685,2.614c1.201,1.114 2.242,2.514 3.128,4.199c0.886,1.687 1.33,3.786 1.33,6.301c-0,2.114 -0.272,4.058 -0.815,5.829c-0.544,1.77 -1.301,3.314 -2.272,4.629c-2.228,2.913 -5.342,4.371 -9.342,4.371Z" style="fill-rule:nonzero;"/><path d="M232.367,100.776c0.114,0.342 0.058,0.672 -0.172,0.986c-0.228,0.315 -0.514,0.528 -0.857,0.643l-0.342,-0c-0.687,-0 -1.114,-0.343 -1.286,-1.029l-3.857,-16.629l-15.172,-0l-3.857,16.629c-0.114,0.342 -0.328,0.628 -0.643,0.857c-0.314,0.23 -0.644,0.286 -0.986,0.172c-0.4,-0.115 -0.701,-0.328 -0.9,-0.643c-0.2,-0.314 -0.243,-0.644 -0.129,-0.986l12.772,-55.116c0.172,-0.687 0.599,-1.029 1.286,-1.029c0.743,-0 1.199,0.342 1.371,1.029l12.772,55.116Zm-7.114,-18.687l-7.029,-30.172l-6.944,30.172l13.973,0Z" style="fill:#9208c4;fill-rule:nonzero;"/><path d="M239.568,102.405c-0.915,-0 -1.373,-0.457 -1.373,-1.372l0,-55.116c0,-0.342 0.129,-0.643 0.386,-0.9c0.257,-0.257 0.587,-0.386 0.987,-0.386c0.399,-0 0.729,0.129 0.986,0.386c0.257,0.257 0.386,0.558 0.386,0.9l-0,55.116c-0,0.915 -0.459,1.372 -1.372,1.372Z" style="fill:#9208c4;fill-rule:nonzero;"/></g><path d="M62.438,0c8.437,9.563 15.187,18.563 19.124,28.125c8.438,-6.188 18.563,-11.25 30.938,-14.625c3.938,18.563 3.938,34.875 -1.125,48.375c4.5,0 9,0.563 13.5,1.688c-9.563,30.937 -29.25,45.562 -62.438,36c-33.187,9.562 -52.875,-5.063 -62.437,-36.001c4.5,-1.125 9,-1.687 13.5,-1.687c-5.062,-13.5 -5.062,-29.813 -1.125,-48.375c12.375,3.375 22.5,8.437 30.938,14.625c3.937,-9.563 10.687,-18.563 19.125,-28.125Zm-36,37.125c4.5,1.687 8.437,3.375 12.375,5.062c1.125,-3.937 2.25,-7.875 3.375,-11.812c-7.313,-5.625 -16.875,-10.688 -28.125,-14.063c-3.375,17.438 -3.375,32.625 1.687,45c2.813,0 6.188,0 9,0.563c-1.125,-7.313 -0.562,-15.75 1.688,-24.75Zm14.625,6.187c2.812,1.688 5.062,2.813 7.312,4.5c1.125,-2.25 2.813,-5.062 4.5,-7.875c-2.812,-2.812 -5.625,-5.625 -8.437,-7.875c-1.688,3.375 -2.813,7.313 -3.375,11.25Zm9.562,6.188c5.063,4.5 9.563,9.562 11.813,15.75c2.25,-6.188 6.75,-11.25 11.812,-15.75c-2.25,-6.188 -6.187,-12.375 -11.812,-18.563c-5.625,6.188 -9.563,12.375 -11.813,18.563Zm12.938,19.125c2.25,7.875 2.25,16.313 -0,26.438l-0,0.562c13.5,-14.625 16.875,-29.25 11.812,-43.875c-5.625,4.5 -9.562,10.125 -11.812,16.875Zm-27.563,18c-6.187,-6.188 -9.562,-13.5 -11.25,-22.5c-2.25,-0.563 -5.062,-0.563 -7.875,-0.563c3.938,9.001 10.125,16.876 19.125,23.063Zm-7.875,-46.688c-5.625,28.688 2.813,48.376 30.938,56.813c-14.063,-15.75 -17.438,-30.938 -11.25,-46.688c-5.625,-3.937 -11.813,-7.312 -19.688,-10.124Zm33.188,55.687l-0,-0.563c-2.25,-10.124 -2.25,-18.562 -0,-26.437c-2.25,-6.75 -6.188,-12.375 -11.813,-16.875c-5.062,14.625 -1.687,29.25 11.813,43.875Zm1.125,-6.188c0.562,-5.624 0.562,-11.249 -0,-15.749c-0.563,4.499 -0.563,10.124 -0,15.749Zm36,-52.312c2.25,9 2.812,17.438 1.687,24.75c2.813,-0.563 6.188,-0.563 9,-0.563c5.063,-12.374 5.063,-27.562 1.688,-45c-11.25,3.376 -20.813,8.438 -28.125,14.063c1.125,3.938 2.25,7.875 3.375,11.813c3.937,-1.688 7.875,-3.376 12.375,-5.063Zm1.687,27c-1.687,9 -5.062,16.313 -11.25,22.5c9,-6.188 15.188,-13.5 19.125,-23.063c-2.812,0.001 -5.625,0.001 -7.875,0.563Zm-23.625,-16.313c2.25,-1.687 4.5,-2.812 7.313,-4.499c-0.563,-3.938 -1.688,-7.875 -3.375,-11.25c-2.813,2.25 -5.625,5.062 -8.438,7.875c1.688,2.812 3.375,5.625 4.5,7.875Zm-10.687,48.937c28.125,-8.438 36.562,-28.125 30.937,-56.813c-7.875,2.813 -14.062,6.188 -19.687,10.126c6.187,15.75 2.812,30.937 -11.25,46.687Zm14.062,-66.938c-3.937,-8.999 -9.562,-17.437 -17.437,-26.437c-7.875,9 -13.5,17.438 -17.438,26.438c3.375,2.25 6.188,5.625 9,8.437c2.25,-3.375 5.063,-7.312 8.438,-10.687c3.375,3.375 6.187,7.312 8.437,10.687c2.813,-2.812 5.625,-6.187 9,-8.437Zm30.938,33.75c-6.75,16.312 -20.813,28.125 -43.875,34.875c28.687,6.75 45.562,-5.625 55.125,-33.188c-3.938,-0.562 -7.875,-1.125 -11.25,-1.687Zm-52.875,34.875c-23.063,-6.75 -37.125,-18.563 -43.875,-34.875c-3.375,0.562 -7.313,1.125 -11.25,1.687c9.562,27.563 26.437,39.938 55.125,33.188Z"/></svg>